<?xml version="1.0" ?><svg xmlns="http://www.w3.org/2000/svg" xmlns:xlink="http://www.w3.org/1999/xlink" version="1.1" viewBox="0 0 94 94" style="enable-background:new 0 0 94 94;" xml:space="preserve"><style type="text/css">
	.st0{display:none;}
	.st1{display:inline;fill:#FEA900;}
	.st2{display:inline;}
	.st3{display:inline;fill:#F9CD6C;}
	.st4{display:inline;fill:none;stroke:#000000;stroke-width:0.25;stroke-miterlimit:10;}
	.st5{stroke:#000000;stroke-linecap:round;stroke-linejoin:round;stroke-miterlimit:10;}
	.st6{opacity:0.2;stroke:#000000;stroke-linecap:round;stroke-linejoin:round;stroke-miterlimit:10;}
	.st7{fill:#F12A00;stroke:#000000;stroke-linecap:round;stroke-linejoin:round;stroke-miterlimit:10;}
	.st8{fill:#FBECCF;stroke:#000000;stroke-linecap:round;stroke-linejoin:round;stroke-miterlimit:10;}
	.st9{opacity:0.2;fill:#F12A00;}
	.st10{fill:#F7C86C;stroke:#000000;stroke-linecap:round;stroke-linejoin:round;stroke-miterlimit:10;}
	.st11{fill:none;stroke:#000000;stroke-linecap:round;stroke-linejoin:round;stroke-miterlimit:10;}
	.st12{display:inline;stroke:#000000;stroke-linecap:round;stroke-linejoin:round;stroke-miterlimit:10;}
	.st13{fill:#FAAC01;stroke:#000000;stroke-linecap:round;stroke-linejoin:round;stroke-miterlimit:10;}
	.st14{fill:#FAAC01;}
	.st15{display:inline;fill:#FAEBCE;stroke:#000000;stroke-width:0.25;stroke-miterlimit:10;}
	.st16{display:inline;fill:none;stroke:#000000;stroke-width:1.0164;stroke-miterlimit:10;}
	.st17{display:inline;fill:#FAEBCE;stroke:#000000;stroke-width:1.0164;stroke-miterlimit:10;}
	.st18{fill:#FEA900;}
	.st19{fill:#F9CD6C;}
	.st20{fill:none;stroke:#000000;stroke-width:1.0164;stroke-miterlimit:10;}
	.st21{fill:#FAEBCE;stroke:#000000;stroke-width:1.0164;stroke-miterlimit:10;}
	.st22{display:inline;fill:#FAEBCE;}
	.st23{fill:#008FF5;stroke:#000000;stroke-linecap:round;stroke-linejoin:round;stroke-miterlimit:10;}
	.st24{fill:#D0E6FB;stroke:#000000;stroke-linecap:round;stroke-linejoin:round;stroke-miterlimit:10;}
	.st25{fill:#FFFFFF;stroke:#000000;stroke-linecap:round;stroke-linejoin:round;stroke-miterlimit:10;}
	.st26{fill:#75D95D;stroke:#000000;stroke-linecap:round;stroke-linejoin:round;stroke-miterlimit:10;}
	.st27{fill:#CAF3BB;}
	.st28{fill:#FFFFFF;}
	.st29{fill:#CAF3BB;stroke:#000000;stroke-linecap:round;stroke-linejoin:round;stroke-miterlimit:10;}
	.st30{display:inline;fill:#D0E6FB;stroke:#000000;stroke-linecap:round;stroke-linejoin:round;stroke-miterlimit:10;}
	.st31{stroke:#FFFFFF;stroke-linecap:round;stroke-linejoin:round;stroke-miterlimit:10;}
	.st32{fill:#B4B2FB;stroke:#000000;stroke-linecap:round;stroke-linejoin:round;stroke-miterlimit:10;}
	.st33{fill:#018BEE;}
	.st34{display:inline;fill:none;stroke:#000000;stroke-linecap:round;stroke-linejoin:round;stroke-miterlimit:10;}
	.st35{fill:#75D95D;}
	.st36{fill:#4949F7;stroke:#000000;stroke-linecap:round;stroke-linejoin:round;stroke-miterlimit:10;}
	.st37{fill:#D0E6FB;}
	.st38{fill:#6FBBF7;stroke:#000000;stroke-linecap:round;stroke-linejoin:round;stroke-miterlimit:10;}
	.st39{fill:#018BEE;stroke:#000000;stroke-linecap:round;stroke-linejoin:round;stroke-miterlimit:10;}
	.st40{fill:#B4B2FB;}
	.st41{fill:#E8E9FE;}
	.st42{fill:#B4B2FB;stroke:#000F24;stroke-miterlimit:10;}
	.st43{stroke:#000000;stroke-miterlimit:10;}
	.st44{fill:#E8E9FE;stroke:#000000;stroke-linecap:round;stroke-linejoin:round;stroke-miterlimit:10;}
	.st45{opacity:0.3;fill:#018BEE;}
	.st46{fill:#6FBBF7;}
	.st47{fill:#FAAC01;stroke:#FFFFFF;stroke-linecap:round;stroke-linejoin:round;stroke-miterlimit:10;}
	.st48{fill:#006A2F;}
	.st49{opacity:0.1;}
	.st50{fill:#FCD4CA;stroke:#000000;stroke-linecap:round;stroke-linejoin:round;stroke-miterlimit:10;}
	.st51{fill:#006A2F;stroke:#000000;stroke-linecap:round;stroke-linejoin:round;stroke-miterlimit:10;}
	.st52{fill:#4949F7;}
	.st53{fill:#F12A00;}
	.st54{fill:#D0E6FB;stroke:#018BEE;stroke-linecap:round;stroke-linejoin:round;stroke-miterlimit:10;}
	.st55{fill:#9CD7FF;}
	.st56{fill:#F7C86C;}
	.st57{opacity:0.3;stroke:#000000;stroke-linecap:round;stroke-linejoin:round;stroke-miterlimit:10;}
	.st58{opacity:0.1;stroke:#000000;stroke-linecap:round;stroke-linejoin:round;stroke-miterlimit:10;}
	.st59{opacity:0.3;fill:#006A2F;}
	.st60{stroke:#000000;stroke-width:1.0825;stroke-linecap:round;stroke-linejoin:round;stroke-miterlimit:10;}
	.st61{fill:#D0E6FB;stroke:#000000;stroke-width:1.0825;stroke-linecap:round;stroke-linejoin:round;stroke-miterlimit:10;}
	.st62{fill:#6FBBF7;stroke:#000000;stroke-width:1.0825;stroke-linecap:round;stroke-linejoin:round;stroke-miterlimit:10;}
	.st63{fill:none;stroke:#000000;stroke-width:1.0825;stroke-linecap:round;stroke-linejoin:round;stroke-miterlimit:10;}
	.st64{fill:#CAF3BB;stroke:#000000;stroke-width:0.7876;stroke-linecap:round;stroke-linejoin:round;stroke-miterlimit:10;}
	.st65{fill:#6FBBF7;stroke:#FFFFFF;stroke-linecap:round;stroke-linejoin:round;stroke-miterlimit:10;}
	.st66{opacity:0.2;}
	.st67{stroke:#E8E9FE;stroke-linecap:round;stroke-linejoin:round;stroke-miterlimit:10;}
	.st68{fill:#FCD4CA;}
	.st69{fill:#FBECCF;}
	.st70{opacity:0.1;fill:#F12A00;}
	.st71{opacity:0.5;stroke:#000000;stroke-linecap:round;stroke-linejoin:round;stroke-miterlimit:10;}
	.st72{fill:#6FBBF7;stroke:#E8E9FE;stroke-linecap:round;stroke-linejoin:round;stroke-miterlimit:10;}
	.st73{opacity:0.5;fill:#D0E6FB;}
	.st74{fill:#70BAF7;}
	.st75{fill:none;stroke:#FFFFFF;stroke-linecap:round;stroke-linejoin:round;stroke-miterlimit:10;}
	.st76{fill:#70BAF7;stroke:#70BAF7;stroke-linecap:round;stroke-linejoin:round;stroke-miterlimit:10;}
	.st77{fill:#018BEE;stroke:#018BEE;stroke-linecap:round;stroke-linejoin:round;stroke-miterlimit:10;}
	.st78{fill:#70BAF7;stroke:#000000;stroke-linecap:round;stroke-linejoin:round;stroke-miterlimit:10;}
	.st79{fill:#F9CD6C;stroke:#000000;stroke-linecap:round;stroke-linejoin:round;stroke-miterlimit:10;}
	.st80{fill:none;}
	.st81{fill:#006A2F;stroke:#006A2F;stroke-miterlimit:10;}
	.st82{fill:#B4DFFC;}
	.st83{fill:#6FBBF7;stroke:#018BEE;stroke-linecap:round;stroke-linejoin:round;stroke-miterlimit:10;}
	.st84{fill:none;stroke:#FBECCF;stroke-linecap:round;stroke-linejoin:round;stroke-miterlimit:10;}
	.st85{fill:none;stroke:#018BEE;stroke-linecap:round;stroke-linejoin:round;stroke-miterlimit:10;}
	.st86{fill:#010101;stroke:#FFFFFF;stroke-linecap:round;stroke-linejoin:round;stroke-miterlimit:10;}
	.st87{fill:#010101;stroke:#000000;stroke-linecap:round;stroke-linejoin:round;stroke-miterlimit:10;}
	.st88{fill:#75D95D;stroke:#FFFFFF;stroke-linecap:round;stroke-linejoin:round;stroke-miterlimit:10;}
	.st89{fill:#94F279;stroke:#000000;stroke-linecap:round;stroke-linejoin:round;stroke-miterlimit:10;}
	.st90{fill:#8C8CF9;}
	.st91{fill:#008FF5;}
	.st92{fill:#8CD8F9;}
	.st93{fill:#FFC043;}
	.st94{fill:#94F279;}
	.st95{fill:#FF3D1D;}
	.st96{fill:#31B1FF;}
	.st97{fill:#FFCF7B;}
	.st98{fill:#B2FF99;}
	.st99{fill:#D7D7FF;}
	.st100{fill:#FF7C6E;}
	.st101{fill:#5CC9FF;}
	.st102{fill:#F12A00;stroke:#FFFFFF;stroke-linecap:round;stroke-linejoin:round;stroke-miterlimit:10;}
	.st103{fill:#F7C86C;stroke:#000000;stroke-width:1.0164;stroke-miterlimit:10;}
</style><g id="Refrences" class="st0"/><g id="Tittle"/><g id="Icons"><g><g><g><path class="st5" d="M45.82,85.87c-0.43,0.08-0.88,0.14-1.36,0.2c-0.93,0.11-1.93,0.19-3.02,0.23c0.32-0.79,1.01-1.35,1.83-1.51      c0.28-0.06,0.59-0.07,0.9-0.01C44.87,84.89,45.46,85.3,45.82,85.87z"/><path class="st5" d="M41.15,86.3c-1.49,0.05-3.15,0.02-4.94-0.08c-1.54-0.08-3.19-0.21-4.95-0.39l0.13-0.78      c0.23-1.34,1.52-2.24,2.86-2.01c1.2,0.21,2.05,1.26,2.05,2.44c0,0.13-0.01,0.27-0.04,0.4c0.28-1.29,1.54-2.13,2.85-1.91      C40.27,84.18,41.11,85.16,41.15,86.3z"/><path class="st5" d="M61.32,76.94H57.4c2.21,2.3,4.92,4,7.87,4.96c-0.12-0.83-0.51-1.62-1.16-2.25L61.32,76.94z"/><path class="st5" d="M6.25,76.94v6.19c0,0.98,0.79,1.77,1.77,1.77h7.3c0.98,0,1.77-0.79,1.77-1.77v-6.19H6.25z"/><path class="st5" d="M6.25,76.94v6.24c0,0.96,0.77,1.73,1.73,1.73h3c-0.96-2.66-1.55-5.31-1.8-7.97H6.25z"/><path class="st5" d="M76.9,76.94v6.19c0,0.98,0.79,1.77,1.77,1.77h7.3c0.98,0,1.77-0.79,1.77-1.77v-6.19H76.9z"/><path class="st5" d="M57.4,76.94c2.21,2.3,4.92,4,7.87,4.96c3.63,1.21,7.63,1.32,11.46,0.14c0.06-0.02,0.11-0.03,0.18-0.05      v-5.05H57.4z"/><path class="st58" d="M71.21,76.94c-0.6,2.27-2.3,4.01-5.18,5.18c3.43,0.99,7.13,1.02,10.7-0.08c0.06-0.02,0.11-0.03,0.18-0.05      v-5.05H71.21z"/><path class="st5" d="M51.7,77.89c0,0-0.36-0.43-0.8-0.95H17.01l-0.05,5.38c3.35-0.85,9.31,2.91,9.31,2.91      c1.76,0.23,3.42,0.44,5,0.59l0.13-0.78c0.23-1.34,1.52-2.24,2.86-2.01c1.2,0.21,2.05,1.26,2.05,2.44c0,0.13-0.01,0.27-0.04,0.4      c0.28-1.29,1.54-2.13,2.85-1.91c1.16,0.2,1.99,1.18,2.04,2.32c0.09,0,0.19-0.01,0.28-0.01c0.32-0.79,1.01-1.35,1.83-1.51      c0.28-0.06,0.59-0.07,0.9-0.01c0.7,0.12,1.3,0.54,1.65,1.1c0.25,0.39,0.39,0.85,0.39,1.34c0,0.14-0.01,0.28-0.04,0.42      l-0.05,0.24l2.64,2.85c0.38,0.41,0.9,0.61,1.47,0.61c0.67,0,1.38-0.27,1.97-0.82c1.08-1,1.3-2.54,0.48-3.43l-4.98-5.6      c0.05-0.03,0.09-0.06,0.13-0.09l6.32,7.06c0.38,0.4,0.91,0.6,1.47,0.6c0.67,0,1.39-0.27,1.98-0.82c1.08-1,1.3-2.54,0.48-3.42      L51.7,77.89z"/><path class="st5" d="M57.4,76.94H51l7.47,8.24c1.55,1.67,4.18,1.68,5.76,0.04c0.72-0.77,1.09-1.75,1.09-2.73      c0-0.2-0.02-0.39-0.05-0.58C62.32,80.94,59.61,79.25,57.4,76.94z"/><path class="st58" d="M17.01,76.94l-0.05,5.38c2.51-0.63,6.49,1.32,8.33,2.34c-1.32-2.57-2.13-5.15-2.43-7.72H17.01z"/><path class="st5" d="M46.22,87.21c0,0.14-0.01,0.28-0.04,0.42l-0.05,0.24l-1.67-1.81l-1.19-1.29c0.28-0.06,0.59-0.07,0.9-0.01      c0.7,0.12,1.3,0.54,1.65,1.1C46.07,86.26,46.22,86.72,46.22,87.21z"/><path class="st5" d="M46.22,87.21c0,0.14-0.01,0.28-0.04,0.42l-0.05,0.24l-0.36,2.08c-0.23,1.34-1.52,2.24-2.86,2.01      c-1.34-0.23-2.24-1.51-2.01-2.86l0.4-2.33c0.03-0.17,0.08-0.34,0.13-0.49c0.32-0.79,1.01-1.35,1.83-1.51      c0.28-0.06,0.59-0.07,0.9-0.01c0.7,0.12,1.3,0.54,1.65,1.1C46.07,86.26,46.22,86.72,46.22,87.21z"/><path class="st5" d="M41.16,86.42c0,0.14-0.01,0.28-0.04,0.42l-0.4,2.32c-0.23,1.34-1.52,2.24-2.86,2.01      c-1.32-0.23-2.23-1.48-2.02-2.81l0.38-2.14l0.06-0.32c0-0.01,0-0.01,0-0.02c0.28-1.29,1.54-2.13,2.85-1.91      c1.16,0.2,1.99,1.18,2.04,2.32C41.16,86.34,41.16,86.38,41.16,86.42z"/><path class="st5" d="M36.31,85.48c0,0.13-0.01,0.27-0.04,0.4c0,0.01,0,0.01,0,0.02l-0.06,0.32l-0.38,2.14l-0.1,0.61      c-0.23,1.34-1.52,2.24-2.86,2.01c-1.34-0.23-2.24-1.51-2.01-2.86l0.4-2.3l0.13-0.78c0.23-1.34,1.52-2.24,2.86-2.01      C35.46,83.25,36.31,84.3,36.31,85.48z"/><path class="st5" d="M27.91,90.66L27.91,90.66c-1.34-0.23-2.24-1.52-2.01-2.86l0.85-4.87c0.23-1.34,1.52-2.24,2.86-2.01h0      c1.34,0.23,2.24,1.52,2.01,2.86l-0.85,4.87C30.54,89.99,29.26,90.89,27.91,90.66z"/><path class="st5" d="M76.9,76.94v6.19c0,0.98,0.79,1.77,1.77,1.77h7.3c0.98,0,1.77-0.79,1.77-1.77v-6.19H76.9z"/><path class="st5" d="M6.25,76.94v6.19c0,0.98,0.79,1.77,1.77,1.77h7.3c0.98,0,1.77-0.79,1.77-1.77v-6.19H6.25z"/></g><path class="st5" d="M44.67,86.83c-0.08,0.48-0.57,1.02-1.04,0.94c-0.48-0.08-0.76-0.75-0.69-1.23c0.08-0.48,0.49-0.58,0.97-0.5     C44.39,86.12,44.75,86.35,44.67,86.83z"/><path class="st5" d="M39.68,86.25c-0.08,0.48-0.57,1.02-1.04,0.94c-0.48-0.08-0.76-0.75-0.69-1.23c0.08-0.48,0.49-0.58,0.97-0.5     C39.4,85.54,39.76,85.77,39.68,86.25z"/><path class="st5" d="M34.66,85.37c-0.08,0.48-0.57,1.02-1.04,0.94c-0.48-0.08-0.76-0.75-0.69-1.23c0.08-0.48,0.49-0.58,0.97-0.5     C34.38,84.66,34.74,84.89,34.66,85.37z"/><path class="st5" d="M30.07,83.2c-0.08,0.48-0.57,1.02-1.04,0.94c-0.48-0.08-0.76-0.75-0.69-1.23c0.08-0.48,0.49-0.58,0.97-0.5     C29.78,82.49,30.14,82.72,30.07,83.2z"/></g><circle class="st5" cx="82.33" cy="80.19" r="1.91"/><circle class="st5" cx="11.67" cy="81.38" r="1.41"/><g><g><path class="st38" d="M44.19,66.06l-5.31,4.49c-0.51,0.42-1.14,0.65-1.78,0.65c-0.31,0-0.63-0.06-0.93-0.16      c-2.04-0.73-2.46-3.44-0.74-4.76l4.98-3.83h0.01C41.8,63.71,43.05,64.91,44.19,66.06z"/><path class="st38" d="M45.82,84.01c-0.43,0.08-0.88,0.14-1.36,0.2c-0.93,0.11-1.93,0.19-3.02,0.23      c0.32-0.79,1.01-1.35,1.83-1.51c0.28-0.06,0.59-0.07,0.9-0.01C44.87,83.03,45.46,83.45,45.82,84.01z"/><path class="st38" d="M41.15,84.44c-1.49,0.05-3.15,0.02-4.94-0.08c-1.54-0.08-3.19-0.21-4.95-0.39l0.13-0.78      c0.23-1.34,1.52-2.24,2.86-2.01c1.2,0.21,2.05,1.26,2.05,2.44c0,0.13-0.01,0.27-0.04,0.4c0.28-1.29,1.54-2.13,2.85-1.91      C40.27,82.32,41.11,83.31,41.15,84.44z"/><path class="st38" d="M65.27,80.05c-3.61-1.17-6.87-3.43-9.28-6.57l-8.11-10.55l-0.56,0.48l-0.13-1.98l16.93,16.37      C64.76,78.42,65.15,79.22,65.27,80.05z"/><path class="st10" d="M15.19,83.06H8.16c-1.06,0-1.91-0.86-1.91-1.91V63.6c0-1.06,0.86-1.91,1.91-1.91h7.02      c1.06,0,1.91,0.86,1.91,1.91v17.55C17.1,82.2,16.24,83.06,15.19,83.06z"/><path class="st14" d="M10.99,61.68h-3c-0.96,0-1.73,0.77-1.73,1.73v17.91c0,0.96,0.77,1.73,1.73,1.73h3      C8.42,75.93,8.42,68.81,10.99,61.68z"/><path class="st38" d="M85.84,83.06h-7.02c-1.06,0-1.91-0.86-1.91-1.91V63.6c0-1.06,0.86-1.91,1.91-1.91h7.02      c1.06,0,1.91,0.86,1.91,1.91v17.55C87.75,82.2,86.89,83.06,85.84,83.06z"/><path class="st33" d="M87.75,66.37v-2.96c0-0.96-0.77-1.73-1.73-1.73h-7.39c-0.96,0-1.73,0.77-1.73,1.73v2.96      C80.52,64.02,84.13,64.02,87.75,66.37z"/><path class="st50" d="M76.91,64.88v15.26c-0.07,0.02-0.12,0.03-0.18,0.05c-3.83,1.18-7.82,1.07-11.46-0.14      c-3.61-1.17-6.87-3.43-9.28-6.57l-8.11-10.55l-0.56,0.48l-3.13,2.66l-5.31,4.49c-0.51,0.42-1.14,0.65-1.78,0.65      c-0.31,0-0.63-0.06-0.93-0.16c-2.04-0.73-2.46-3.44-0.74-4.76l4.98-3.83h0.01l5.02-3.85c3.63-2.8,8.43-3.54,12.77-2.04      c3.75,1.31,6.96,2.94,9.4,5.04c2.46,2.11,5.59,3.28,8.83,3.28H76.91z"/><path class="st70" d="M76.44,64.88c-3.24,0-6.37-1.16-8.83-3.28c-0.49-0.42-1.02-0.82-1.58-1.21c7.07,10.06,7.43,16.86,0,19.88      c3.43,0.99,7.13,1.02,10.7-0.08c0.06-0.02,0.11-0.03,0.18-0.05V64.88H76.44z"/><path class="st50" d="M65.32,80.63c0,0.99-0.37,1.96-1.09,2.73c-1.58,1.64-4.21,1.63-5.76-0.04l-9.16-10.1      c0,0.01,2.39,2.81,2.39,2.82l6.41,6.92c0.82,0.88,0.6,2.41-0.48,3.42c-0.59,0.54-1.31,0.82-1.98,0.82c-0.56,0-1.1-0.2-1.47-0.6      l-6.32-7.06c-0.04,0.04-0.08,0.07-0.13,0.09l4.98,5.6c0.82,0.89,0.6,2.42-0.48,3.43c-0.59,0.54-1.31,0.82-1.97,0.82      c-0.57,0-1.1-0.2-1.47-0.61l-2.64-2.85l0.05-0.24c0.03-0.14,0.04-0.28,0.04-0.42c0-0.49-0.14-0.95-0.39-1.34      c-0.36-0.56-0.95-0.98-1.65-1.1c-0.31-0.06-0.62-0.05-0.9,0.01c-0.82,0.16-1.51,0.72-1.83,1.51c-0.09,0-0.19,0.01-0.28,0.01      c-0.05-1.14-0.88-2.12-2.04-2.32c-1.31-0.23-2.56,0.62-2.85,1.91c0.03-0.13,0.04-0.27,0.04-0.4c0-1.18-0.85-2.24-2.05-2.44      c-1.34-0.23-2.63,0.67-2.86,2.01l-0.13,0.78c-1.58-0.15-3.24-0.36-5-0.59c0,0-5.95-3.76-9.31-2.91l0.14-15.59h0.53      c2.15,0,4.29-0.47,6.22-1.44c3.09-1.54,10.51-2.8,16.57-1l-4.98,3.83c-1.72,1.32-1.3,4.03,0.74,4.76      c0.3,0.1,0.62,0.16,0.93,0.16c0.64,0,1.27-0.23,1.78-0.65l5.31-4.49l3.13-2.66l0.56-0.48l8.11,10.55      c2.41,3.15,5.67,5.4,9.28,6.57C65.3,80.23,65.32,80.43,65.32,80.63z"/><path class="st70" d="M25.29,62.85c-0.55,0.19-1.03,0.38-1.44,0.59c-1.93,0.97-4.07,1.44-6.22,1.44H17.1l-0.14,15.59      c2.51-0.63,6.49,1.32,8.32,2.34C21.87,76.16,21.87,69.51,25.29,62.85z"/><path class="st38" d="M46.22,85.35c0,0.14-0.01,0.28-0.04,0.42l-0.05,0.24l-1.67-1.81l-1.19-1.29c0.28-0.06,0.59-0.07,0.9-0.01      c0.7,0.12,1.3,0.54,1.65,1.1C46.07,84.4,46.22,84.86,46.22,85.35z"/><path class="st50" d="M46.22,85.35c0,0.14-0.01,0.28-0.04,0.42l-0.05,0.24l-0.36,2.08c-0.23,1.34-1.52,2.24-2.86,2.01      c-1.34-0.23-2.24-1.51-2.01-2.86l0.4-2.33c0.03-0.17,0.08-0.34,0.13-0.49c0.32-0.79,1.01-1.35,1.83-1.51      c0.28-0.06,0.59-0.07,0.9-0.01c0.7,0.12,1.3,0.54,1.65,1.1C46.07,84.4,46.22,84.86,46.22,85.35z"/><path class="st50" d="M41.16,84.56c0,0.14-0.01,0.28-0.04,0.42l-0.4,2.32c-0.23,1.34-1.52,2.24-2.86,2.01      c-1.32-0.23-2.23-1.48-2.02-2.81l0.38-2.14l0.06-0.32c0-0.01,0-0.01,0-0.02c0.28-1.29,1.54-2.13,2.85-1.91      c1.16,0.2,1.99,1.18,2.04,2.32C41.16,84.48,41.16,84.53,41.16,84.56z"/><path class="st50" d="M36.31,83.62c0,0.13-0.01,0.27-0.04,0.4c0,0.01,0,0.01,0,0.02l-0.06,0.32l-0.38,2.14l-0.1,0.61      c-0.23,1.34-1.52,2.24-2.86,2.01c-1.34-0.23-2.24-1.51-2.01-2.86l0.4-2.3l0.13-0.78c0.23-1.34,1.52-2.24,2.86-2.01      C35.46,81.39,36.31,82.44,36.31,83.62z"/><path class="st50" d="M27.91,88.8L27.91,88.8c-1.34-0.23-2.24-1.52-2.01-2.86l0.85-4.87c0.23-1.34,1.52-2.24,2.86-2.01h0      c1.34,0.23,2.24,1.52,2.01,2.86l-0.85,4.87C30.54,88.13,29.26,89.03,27.91,88.8z"/><path class="st11" d="M85.84,83.06h-7.02c-1.06,0-1.91-0.86-1.91-1.91V63.6c0-1.06,0.86-1.91,1.91-1.91h7.02      c1.06,0,1.91,0.86,1.91,1.91v17.55C87.75,82.2,86.89,83.06,85.84,83.06z"/><path class="st11" d="M15.19,83.06H8.16c-1.06,0-1.91-0.86-1.91-1.91V63.6c0-1.06,0.86-1.91,1.91-1.91h7.02      c1.06,0,1.91,0.86,1.91,1.91v17.55C17.1,82.2,16.24,83.06,15.19,83.06z"/></g><path class="st28" d="M44.67,84.97c-0.08,0.48-0.57,1.02-1.04,0.94c-0.48-0.08-0.76-0.75-0.69-1.23c0.08-0.48,0.49-0.58,0.97-0.5     C44.39,84.26,44.75,84.49,44.67,84.97z"/><path class="st28" d="M39.68,84.39c-0.08,0.48-0.57,1.02-1.04,0.94c-0.48-0.08-0.76-0.75-0.69-1.23c0.08-0.48,0.49-0.58,0.97-0.5     C39.4,83.69,39.76,83.92,39.68,84.39z"/><path class="st28" d="M34.66,83.51c-0.08,0.48-0.57,1.02-1.04,0.94c-0.48-0.08-0.76-0.75-0.69-1.23c0.08-0.48,0.49-0.58,0.97-0.5     C34.38,82.81,34.74,83.04,34.66,83.51z"/><path class="st28" d="M30.07,81.34c-0.08,0.48-0.57,1.02-1.04,0.94c-0.48-0.08-0.76-0.75-0.69-1.23c0.08-0.48,0.49-0.58,0.97-0.5     C29.78,80.64,30.14,80.86,30.07,81.34z"/><path class="st28" d="M37.38,68.99c-0.67,0.42-1.86,0.41-2.28-0.26c-0.42-0.67,0.09-1.74,0.76-2.16     c0.67-0.42,1.24-0.02,1.66,0.65C37.94,67.88,38.05,68.57,37.38,68.99z"/></g><circle class="st33" cx="82.33" cy="78.33" r="1.91"/><circle class="st14" cx="11.67" cy="79.52" r="1.41"/><g><path class="st5" d="M33.4,22.67H16.57c-1.1,0-2.06-0.86-2.24-2.06c-0.3-1.97-0.41-4.16-0.4-6.48C13.97,7.41,18.92,2,24.99,2h0     c6.05,0,10.97,5.39,11.06,12.09c0.03,2.46-0.09,4.7-0.44,6.63C35.4,21.87,34.45,22.67,33.4,22.67z"/><path class="st5" d="M14.63,43.12v6.78h-1.57c-1.81,0-3.27-1.47-3.27-3.27v-3.51H14.63z"/><path class="st5" d="M27.58,17.48v6.64l-0.68,0.64c-1.1,1.05-2.82,1.05-3.92,0l-0.68-0.64v-6.64H27.58z"/><path class="st5" d="M40.08,30.56v12.56h-4.84v6.78H14.63v-6.78H9.79V30.58c0-2.66,1.95-4.92,4.59-5.3l7.92-1.15l0.68,0.64     c1.1,1.04,2.82,1.04,3.92,0l0.68-0.64l7.94,1.16C38.14,25.66,40.08,27.91,40.08,30.56z"/><path class="st58" d="M19.79,24.49l-5.41,0.79c-2.63,0.38-4.59,2.64-4.59,5.3v7.88C11.27,31.84,14.6,27.18,19.79,24.49z"/><path class="st5" d="M42.01,46.49V50c0,1.81-1.47,3.27-3.27,3.27h-1.57v-6.78H42.01z"/><line class="st5" x1="37.17" y1="46.48" x2="37.17" y2="44.25"/><line class="st5" x1="14.63" y1="43.11" x2="14.63" y2="40.88"/><path class="st5" d="M18.02,12.1v2.9c0,3.6,2.92,6.52,6.51,6.52h0.8c3.6,0,6.52-2.92,6.52-6.52v-2.9c0,0-2.84-1.16-7.74-1.58     C23.41,10.45,22.2,13.24,18.02,12.1z"/><path class="st5" d="M58.12,46.49v6.78h-1.57c-1.81,0-3.27-1.47-3.27-3.27v-3.51H58.12z"/><path class="st5" d="M72.99,17.48v6.64l-0.68,0.64c-1.1,1.05-2.82,1.05-3.92,0l-0.68-0.64v-6.64H72.99z"/><path class="st5" d="M85.5,30.56v12.56h-4.84v6.78H60.05v-6.78h-4.84V30.58c0-2.66,1.95-4.92,4.59-5.3l7.92-1.15l0.68,0.64     c1.1,1.04,2.82,1.04,3.92,0l0.68-0.64l7.94,1.16C83.56,25.66,85.5,27.91,85.5,30.56z"/><path class="st71" d="M85.5,36.05v-5.5c0-2.65-1.94-4.9-4.57-5.28l-4.89-0.71C80.53,27.34,83.64,31.2,85.5,36.05z"/><path class="st5" d="M85.5,43.12v3.51c0,1.81-1.47,3.27-3.27,3.27h-1.57v-6.78H85.5z"/><line class="st5" x1="80.66" y1="43.11" x2="80.66" y2="40.88"/><line class="st5" x1="58.12" y1="46.48" x2="58.12" y2="44.25"/><path class="st5" d="M77.27,13.28v1.71c0,3.6-2.92,6.52-6.52,6.52h-0.8c-3.58,0-6.51-2.92-6.51-6.52v-4.48h9.43L77.27,13.28z"/><path class="st5" d="M77.27,10.51v2.77l-3.61-2.27c-0.52-0.33-1.12-0.5-1.73-0.5h-8.49c0-3.6,2.92-6.52,6.51-6.52h0.8     C74.35,3.99,77.27,6.91,77.27,10.51z"/><path class="st5" d="M38.99,47.57v5.7h-1.32c-1.52,0-2.75-1.23-2.75-2.75v-2.95H38.99z"/><path class="st5" d="M49.86,26.03v5.58l-0.57,0.54c-0.92,0.88-2.37,0.88-3.3,0l-0.57-0.54v-5.58H49.86z"/><path class="st5" d="M60.37,37.02v10.56H56.3v5.7H38.99v-5.7h-4.07V37.04c0-2.24,1.64-4.13,3.85-4.46l6.65-0.97L46,32.15     c0.92,0.88,2.37,0.88,3.3,0l0.57-0.54l6.67,0.97C58.74,32.9,60.37,34.79,60.37,37.02z"/><path class="st71" d="M60.37,38.26v-1.24c0-2.23-1.63-4.11-3.84-4.43l-6.67-0.97l-0.57,0.54c-0.92,0.88-2.37,0.88-3.3,0     l-0.57-0.54l-6.65,0.97c-2.21,0.32-3.85,2.22-3.85,4.46v1.23C42.05,34.5,50.53,34.5,60.37,38.26z"/><g><path class="st5" d="M60.37,47.57v2.95c0,1.52-1.23,2.75-2.75,2.75H56.3v-5.7H60.37z"/><line class="st5" x1="56.31" y1="47.57" x2="56.31" y2="45.69"/></g><g><line class="st5" x1="38.98" y1="47.57" x2="38.98" y2="45.69"/></g><g><path class="st5" d="M53.45,22.5v1.44c0,3.03-2.45,5.48-5.48,5.48H47.3c-3.01,0-5.47-2.45-5.47-5.48v-3.76h7.92L53.45,22.5z"/><path class="st5" d="M53.45,20.18v2.32l-3.03-1.91c-0.43-0.27-0.94-0.42-1.45-0.42h-7.13c0-3.03,2.45-5.48,5.47-5.48h0.67      C51,14.69,53.45,17.15,53.45,20.18z"/></g><path class="st5" d="M60.37,37.02v10.56H56.3v5.7H38.99v-5.7h-4.07V37.04c0-2.24,1.64-4.13,3.85-4.46l6.65-0.97L46,32.15     c0.92,0.88,2.37,0.88,3.3,0l0.57-0.54l6.67,0.97C58.74,32.9,60.37,34.79,60.37,37.02z"/><path class="st5" d="M19.79,24.49l-5.41,0.79c-2.63,0.38-4.59,2.64-4.59,5.3v12.54h4.84v6.78h5.15"/><path class="st5" d="M71.84,49.91h8.82v-6.78h4.84V30.56c0-2.65-1.94-4.9-4.57-5.28l-7.94-1.16l-0.68,0.64     c-0.15,0.14-0.31,0.26-0.48,0.36"/><path class="st10" d="M32.11,22.67H15.28c-1.1,0-2.06-0.86-2.24-2.06c-0.3-1.97-0.41-4.16-0.4-6.48C12.68,7.41,17.63,2,23.7,2h0     c6.05,0,10.97,5.39,11.06,12.09c0.03,2.46-0.09,4.7-0.44,6.63C34.11,21.87,33.16,22.67,32.11,22.67z"/><path class="st50" d="M13.34,43.12v6.78h-1.57c-1.81,0-3.27-1.47-3.27-3.27v-3.51H13.34z"/><path class="st50" d="M26.29,17.48v6.64l-0.68,0.64c-1.1,1.05-2.82,1.05-3.92,0l-0.68-0.64v-6.64H26.29z"/><path class="st7" d="M38.79,30.56v12.56h-4.84v6.78H13.34v-6.78H8.5V30.58c0-2.66,1.95-4.92,4.59-5.3l7.92-1.15l0.68,0.64     c1.1,1.04,2.82,1.04,3.92,0l0.68-0.64l7.94,1.16C36.85,25.66,38.79,27.91,38.79,30.56z"/><path class="st49" d="M18.5,24.49l-5.41,0.79c-2.63,0.38-4.59,2.64-4.59,5.3v7.88C9.98,31.84,13.31,27.18,18.5,24.49z"/><path class="st50" d="M40.72,46.49V50c0,1.81-1.47,3.27-3.27,3.27h-1.57v-6.78H40.72z"/><line class="st11" x1="35.88" y1="46.48" x2="35.88" y2="44.25"/><line class="st11" x1="13.34" y1="43.11" x2="13.34" y2="40.88"/><path class="st50" d="M16.73,12.1v2.9c0,3.6,2.92,6.52,6.51,6.52h0.8c3.6,0,6.52-2.92,6.52-6.52v-2.9c0,0-2.84-1.16-7.74-1.58     C22.12,10.45,20.91,13.24,16.73,12.1z"/><path class="st50" d="M56.83,46.49v6.78h-1.57c-1.81,0-3.27-1.47-3.27-3.27v-3.51H56.83z"/><path class="st50" d="M71.7,17.48v6.64l-0.68,0.64c-1.1,1.05-2.82,1.05-3.92,0l-0.68-0.64v-6.64H71.7z"/><path class="st38" d="M84.21,30.56v12.56h-4.84v6.78H58.76v-6.78h-4.84V30.58c0-2.66,1.95-4.92,4.59-5.3l7.92-1.15l0.68,0.64     c1.1,1.04,2.82,1.04,3.92,0l0.68-0.64l7.94,1.16C82.27,25.66,84.21,27.91,84.21,30.56z"/><polyline class="st72" points="67.96,46.91 76.37,46.91 76.37,42.87    "/><path class="st73" d="M84.21,36.05v-5.5c0-2.65-1.94-4.9-4.57-5.28l-4.89-0.71C79.24,27.34,82.35,31.2,84.21,36.05z"/><path class="st50" d="M84.21,43.12v3.51c0,1.81-1.47,3.27-3.27,3.27h-1.57v-6.78H84.21z"/><line class="st11" x1="79.37" y1="43.11" x2="79.37" y2="40.88"/><line class="st11" x1="56.83" y1="46.48" x2="56.83" y2="44.25"/><path class="st50" d="M75.98,13.28v1.71c0,3.6-2.92,6.52-6.52,6.52h-0.8c-3.58,0-6.51-2.92-6.51-6.52v-4.48h9.43L75.98,13.28z"/><path class="st10" d="M75.98,10.51v2.77l-3.61-2.27c-0.52-0.33-1.12-0.5-1.73-0.5h-8.49c0-3.6,2.92-6.52,6.51-6.52h0.8     C73.06,3.99,75.98,6.91,75.98,10.51z"/><path class="st50" d="M37.7,47.57v5.7h-1.32c-1.52,0-2.75-1.23-2.75-2.75v-2.95H37.7z"/><path class="st50" d="M48.57,26.03v5.58L48,32.15c-0.92,0.88-2.37,0.88-3.3,0l-0.57-0.54v-5.58H48.57z"/><path class="st32" d="M59.08,37.02v10.56h-4.07v5.7H37.7v-5.7h-4.07V37.04c0-2.24,1.64-4.13,3.85-4.46l6.65-0.97l0.57,0.54     c0.92,0.88,2.37,0.88,3.3,0l0.57-0.54l6.67,0.97C57.45,32.9,59.08,34.79,59.08,37.02z"/><path class="st73" d="M59.08,38.26v-1.24c0-2.23-1.63-4.11-3.84-4.43l-6.67-0.97L48,32.15c-0.92,0.88-2.37,0.88-3.3,0l-0.57-0.54     l-6.65,0.97c-2.21,0.32-3.85,2.22-3.85,4.46v1.23C40.76,34.5,49.24,34.5,59.08,38.26z"/><g><path class="st50" d="M59.08,47.57v2.95c0,1.52-1.23,2.75-2.75,2.75h-1.32v-5.7H59.08z"/><line class="st11" x1="55.02" y1="47.57" x2="55.02" y2="45.69"/></g><g><line class="st11" x1="37.69" y1="47.57" x2="37.69" y2="45.69"/></g><g><path class="st50" d="M52.16,22.5v1.44c0,3.03-2.45,5.48-5.48,5.48h-0.67c-3.01,0-5.47-2.45-5.47-5.48v-3.76h7.92L52.16,22.5z"/><path class="st10" d="M52.16,20.18v2.32l-3.03-1.91c-0.43-0.27-0.94-0.42-1.45-0.42h-7.13c0-3.03,2.45-5.48,5.47-5.48h0.67      C49.71,14.69,52.16,17.15,52.16,20.18z"/></g><path class="st11" d="M59.08,37.02v10.56h-4.07v5.7H37.7v-5.7h-4.07V37.04c0-2.24,1.64-4.13,3.85-4.46l6.65-0.97l0.57,0.54     c0.92,0.88,2.37,0.88,3.3,0l0.57-0.54l6.67,0.97C57.45,32.9,59.08,34.79,59.08,37.02z"/><path class="st11" d="M18.5,24.49l-5.41,0.79c-2.63,0.38-4.59,2.64-4.59,5.3v12.54h4.84v6.78h5.15"/><path class="st11" d="M70.55,49.91h8.82v-6.78h4.84V30.56c0-2.65-1.94-4.9-4.57-5.28l-7.94-1.16l-0.68,0.64     c-0.15,0.14-0.31,0.26-0.48,0.36"/></g></g></g><g id="Layer_4"/></svg>